<?xml version="1.0" encoding="UTF-8" standalone="no"?>
<!DOCTYPE svg PUBLIC "-//W3C//DTD SVG 1.1//EN"
 "http://www.w3.org/Graphics/SVG/1.1/DTD/svg11.dtd">
<!-- Generated by graphviz version 2.40.1 (20161225.0304)
 -->
<!-- Title: flow Pages: 1 -->
<svg width="562pt" height="44pt"
 viewBox="0.00 0.00 561.70 44.00" xmlns="http://www.w3.org/2000/svg" xmlns:xlink="http://www.w3.org/1999/xlink">
<g id="graph0" class="graph" transform="scale(1 1) rotate(0) translate(4 40)">
<title>flow</title>
<polygon fill="#ffffff" stroke="transparent" points="-4,4 -4,-40 557.7014,-40 557.7014,4 -4,4"/>
<!-- A -->
<g id="node1" class="node">
<title>A</title>
<polygon fill="#2ca6a4" stroke="#000000" points="71.3775,-36 .2067,-36 .2067,0 71.3775,0 71.3775,-36"/>
<text text-anchor="middle" x="35.7921" y="-13.8" font-family="Times,serif" font-size="14.00" fill="#ffffff">Raw Data</text>
</g>
<!-- B -->
<g id="node2" class="node">
<title>B</title>
<polygon fill="#2ca6a4" stroke="#000000" points="173.9062,-36 107.8092,-36 107.8092,0 173.9062,0 173.9062,-36"/>
<text text-anchor="middle" x="140.8577" y="-13.8" font-family="Times,serif" font-size="14.00" fill="#ffffff">Cleaning</text>
</g>
<!-- A&#45;&gt;B -->
<g id="edge1" class="edge">
<title>A&#45;&gt;B</title>
<path fill="none" stroke="#000000" d="M71.6559,-18C79.9394,-18 88.8398,-18 97.4077,-18"/>
<polygon fill="#000000" stroke="#000000" points="97.6301,-21.5001 107.6301,-18 97.63,-14.5001 97.6301,-21.5001"/>
</g>
<!-- C -->
<g id="node3" class="node">
<title>C</title>
<polygon fill="#2ca6a4" stroke="#000000" points="306.9273,-36 210.1991,-36 210.1991,0 306.9273,0 306.9273,-36"/>
<text text-anchor="middle" x="258.5632" y="-13.8" font-family="Times,serif" font-size="14.00" fill="#ffffff">Normalization</text>
</g>
<!-- B&#45;&gt;C -->
<g id="edge2" class="edge">
<title>B&#45;&gt;C</title>
<path fill="none" stroke="#000000" d="M173.9585,-18C182.0607,-18 190.9741,-18 199.8822,-18"/>
<polygon fill="#000000" stroke="#000000" points="199.8941,-21.5001 209.894,-18 199.894,-14.5001 199.8941,-21.5001"/>
</g>
<!-- D -->
<g id="node4" class="node">
<title>D</title>
<polygon fill="#2ca6a4" stroke="#000000" points="447.3942,-36 342.862,-36 342.862,0 447.3942,0 447.3942,-36"/>
<text text-anchor="middle" x="395.1281" y="-13.8" font-family="Times,serif" font-size="14.00" fill="#ffffff">Train/Test Split</text>
</g>
<!-- C&#45;&gt;D -->
<g id="edge3" class="edge">
<title>C&#45;&gt;D</title>
<path fill="none" stroke="#000000" d="M307.0954,-18C315.271,-18 323.86,-18 332.3354,-18"/>
<polygon fill="#000000" stroke="#000000" points="332.5819,-21.5001 342.5819,-18 332.5818,-14.5001 332.5819,-21.5001"/>
</g>
<!-- E -->
<g id="node5" class="node">
<title>E</title>
<polygon fill="#2ca6a4" stroke="#000000" points="553.923,-36 483.0394,-36 483.0394,0 553.923,0 553.923,-36"/>
<text text-anchor="middle" x="518.4812" y="-13.8" font-family="Times,serif" font-size="14.00" fill="#ffffff">Modeling</text>
</g>
<!-- D&#45;&gt;E -->
<g id="edge4" class="edge">
<title>D&#45;&gt;E</title>
<path fill="none" stroke="#000000" d="M447.4409,-18C455.9362,-18 464.6741,-18 472.9896,-18"/>
<polygon fill="#000000" stroke="#000000" points="473.2467,-21.5001 483.2467,-18 473.2466,-14.5001 473.2467,-21.5001"/>
</g>
</g>
</svg>

