<?xml version="1.0" encoding="UTF-8" standalone="no"?>
<!DOCTYPE svg PUBLIC "-//W3C//DTD SVG 1.1//EN"
 "http://www.w3.org/Graphics/SVG/1.1/DTD/svg11.dtd">
<!-- Generated by graphviz version 2.40.1 (20161225.0304)
 -->
<!-- Title: workflow Pages: 1 -->
<svg width="112pt" height="476pt"
 viewBox="0.00 0.00 112.27 476.00" xmlns="http://www.w3.org/2000/svg" xmlns:xlink="http://www.w3.org/1999/xlink">
<g id="graph0" class="graph" transform="scale(1 1) rotate(0) translate(4 472)">
<title>workflow</title>
<polygon fill="#ffffff" stroke="transparent" points="-4,4 -4,-472 108.2658,-472 108.2658,4 -4,4"/>
<!-- A -->
<g id="node1" class="node">
<title>A</title>
<polygon fill="#0a2342" stroke="#000000" points="81.1091,-468 23.1567,-468 23.1567,-432 81.1091,-432 81.1091,-468"/>
<text text-anchor="middle" x="52.1329" y="-445.8" font-family="Times,serif" font-size="14.00" fill="#ffffff">Dataset</text>
</g>
<!-- B -->
<g id="node2" class="node">
<title>B</title>
<polygon fill="#0a2342" stroke="#000000" points="99.1615,-396 5.1043,-396 5.1043,-360 99.1615,-360 99.1615,-396"/>
<text text-anchor="middle" x="52.1329" y="-373.8" font-family="Times,serif" font-size="14.00" fill="#ffffff">Preprocessing</text>
</g>
<!-- A&#45;&gt;B -->
<g id="edge1" class="edge">
<title>A&#45;&gt;B</title>
<path fill="none" stroke="#000000" d="M52.1329,-431.8314C52.1329,-424.131 52.1329,-414.9743 52.1329,-406.4166"/>
<polygon fill="#000000" stroke="#000000" points="55.633,-406.4132 52.1329,-396.4133 48.633,-406.4133 55.633,-406.4132"/>
</g>
<!-- C -->
<g id="node3" class="node">
<title>C</title>
<polygon fill="#0a2342" stroke="#000000" points="100.497,-324 3.7688,-324 3.7688,-288 100.497,-288 100.497,-324"/>
<text text-anchor="middle" x="52.1329" y="-301.8" font-family="Times,serif" font-size="14.00" fill="#ffffff">Normalization</text>
</g>
<!-- B&#45;&gt;C -->
<g id="edge2" class="edge">
<title>B&#45;&gt;C</title>
<path fill="none" stroke="#000000" d="M52.1329,-359.8314C52.1329,-352.131 52.1329,-342.9743 52.1329,-334.4166"/>
<polygon fill="#000000" stroke="#000000" points="55.633,-334.4132 52.1329,-324.4133 48.633,-334.4133 55.633,-334.4132"/>
</g>
<!-- D -->
<g id="node4" class="node">
<title>D</title>
<polygon fill="#0a2342" stroke="#000000" points="104.399,-252 -.1332,-252 -.1332,-216 104.399,-216 104.399,-252"/>
<text text-anchor="middle" x="52.1329" y="-229.8" font-family="Times,serif" font-size="14.00" fill="#ffffff">Train/Test Split</text>
</g>
<!-- C&#45;&gt;D -->
<g id="edge3" class="edge">
<title>C&#45;&gt;D</title>
<path fill="none" stroke="#000000" d="M52.1329,-287.8314C52.1329,-280.131 52.1329,-270.9743 52.1329,-262.4166"/>
<polygon fill="#000000" stroke="#000000" points="55.633,-262.4132 52.1329,-252.4133 48.633,-262.4133 55.633,-262.4132"/>
</g>
<!-- E -->
<g id="node5" class="node">
<title>E</title>
<polygon fill="#0a2342" stroke="#000000" points="104.3934,-180 -.1276,-180 -.1276,-144 104.3934,-144 104.3934,-180"/>
<text text-anchor="middle" x="52.1329" y="-157.8" font-family="Times,serif" font-size="14.00" fill="#ffffff">KNN Modeling</text>
</g>
<!-- D&#45;&gt;E -->
<g id="edge4" class="edge">
<title>D&#45;&gt;E</title>
<path fill="none" stroke="#000000" d="M52.1329,-215.8314C52.1329,-208.131 52.1329,-198.9743 52.1329,-190.4166"/>
<polygon fill="#000000" stroke="#000000" points="55.633,-190.4132 52.1329,-180.4133 48.633,-190.4133 55.633,-190.4132"/>
</g>
<!-- F -->
<g id="node6" class="node">
<title>F</title>
<polygon fill="#0a2342" stroke="#000000" points="90.2873,-108 13.9785,-108 13.9785,-72 90.2873,-72 90.2873,-108"/>
<text text-anchor="middle" x="52.1329" y="-85.8" font-family="Times,serif" font-size="14.00" fill="#ffffff">Evaluation</text>
</g>
<!-- E&#45;&gt;F -->
<g id="edge5" class="edge">
<title>E&#45;&gt;F</title>
<path fill="none" stroke="#000000" d="M52.1329,-143.8314C52.1329,-136.131 52.1329,-126.9743 52.1329,-118.4166"/>
<polygon fill="#000000" stroke="#000000" points="55.633,-118.4132 52.1329,-108.4133 48.633,-118.4133 55.633,-118.4132"/>
</g>
<!-- G -->
<g id="node7" class="node">
<title>G</title>
<polygon fill="#0a2342" stroke="#000000" points="91.9102,-36 12.3556,-36 12.3556,0 91.9102,0 91.9102,-36"/>
<text text-anchor="middle" x="52.1329" y="-13.8" font-family="Times,serif" font-size="14.00" fill="#ffffff">Conclusion</text>
</g>
<!-- F&#45;&gt;G -->
<g id="edge6" class="edge">
<title>F&#45;&gt;G</title>
<path fill="none" stroke="#000000" d="M52.1329,-71.8314C52.1329,-64.131 52.1329,-54.9743 52.1329,-46.4166"/>
<polygon fill="#000000" stroke="#000000" points="55.633,-46.4132 52.1329,-36.4133 48.633,-46.4133 55.633,-46.4132"/>
</g>
</g>
</svg>

